<mxfile host="app.diagrams.net" modified="2023-07-10T17:20:33.625Z" agent="Mozilla/5.0 (Macintosh; Intel Mac OS X 10_15_7) AppleWebKit/537.36 (KHTML, like Gecko) Chrome/114.0.0.0 Safari/537.36" version="21.6.1" etag="A0hAp0iKlWClGmkhMoL8" type="github">
  <diagram name="Page-1" id="K5Yx-MWFr-CgtCz-KE08">
    <mxGraphModel>
      <root>
        <mxCell id="0" />
        <mxCell id="1" parent="0" />
      </root>
    </mxGraphModel>
  </diagram>
</mxfile>
